# Blender 5.2.0 LTS
# www.blender.org
mtllib Grass.mtl
o Grass
v 0.224768 -0.031800 0.314032
v 0.242532 -0.031800 0.278193
v 0.187199 0.850409 0.273088
v 0.223321 0.559904 0.335637
v 0.223321 0.559904 0.335637
v 0.235361 0.263750 0.350534
v 0.235361 0.263750 0.350534
v 0.277995 0.263750 0.264520
v 0.277995 0.263750 0.264520
v 0.258849 0.559904 0.263958
v 0.258849 0.559904 0.263958
v -0.020000 -0.031800 -0.025903
v 0.020000 -0.031800 -0.025903
v -0.000000 0.850409 -0.077747
v -0.040000 0.559904 -0.017605
v -0.040000 0.559904 -0.017605
v -0.048000 0.263750 -0.000201
v -0.048000 0.263750 -0.000201
v 0.048000 0.263750 -0.000201
v 0.048000 0.263750 -0.000201
v 0.040000 0.559904 -0.017605
v 0.040000 0.559904 -0.017605
v -0.230253 -0.031800 -0.304834
v -0.253405 -0.031800 -0.272215
v -0.199552 0.850409 -0.258517
v -0.225444 0.559904 -0.325946
v -0.225444 0.559904 -0.325946
v -0.235007 0.263750 -0.342543
v -0.235007 0.263750 -0.342543
v -0.290571 0.263750 -0.264258
v -0.290571 0.263750 -0.264258
v -0.271748 0.559904 -0.260708
v -0.271748 0.559904 -0.260708
v 0.263951 -0.031800 -0.334480
v 0.301820 -0.031800 -0.321600
v 0.299580 0.850409 -0.377123
v 0.242344 0.559904 -0.333064
v 0.242344 0.559904 -0.333064
v 0.229166 0.263750 -0.319163
v 0.229166 0.263750 -0.319163
v 0.320053 0.263750 -0.288251
v 0.320053 0.263750 -0.288251
v 0.318083 0.559904 -0.307303
v 0.318083 0.559904 -0.307303
v 0.167691 -0.022744 -0.180873
v 0.150233 -0.022744 -0.144884
v 0.205608 0.707408 -0.140251
v 0.168954 0.466975 -0.202489
v 0.168954 0.466975 -0.202489
v 0.156787 0.221865 -0.217283
v 0.156787 0.221865 -0.217283
v 0.114888 0.221865 -0.130909
v 0.114888 0.221865 -0.130909
v 0.134038 0.466975 -0.130511
v 0.134038 0.466975 -0.130511
v -0.152509 -0.022744 -0.138012
v -0.192342 -0.022744 -0.169925
v -0.204842 0.707408 -0.113509
v -0.127404 0.466975 -0.128531
v -0.127404 0.466975 -0.128531
v -0.108556 0.221865 -0.135730
v -0.108556 0.221865 -0.135730
v -0.204154 0.221865 -0.212323
v -0.204154 0.221865 -0.212323
v -0.207070 0.466975 -0.192358
v -0.207070 0.466975 -0.192358
v -0.014450 -0.031564 -0.294446
v 0.037017 -0.031564 -0.269540
v 0.033867 0.715049 -0.328660
v -0.043799 0.469195 -0.299430
v -0.043799 0.469195 -0.299430
v -0.061673 0.218560 -0.288745
v -0.061673 0.218560 -0.288745
v 0.061848 0.218560 -0.228970
v 0.061848 0.218560 -0.228970
v 0.059136 0.469195 -0.249617
v 0.059136 0.469195 -0.249617
v -0.282820 -0.031800 -0.009511
v -0.293138 -0.031800 -0.048157
v -0.338068 0.850409 -0.015461
v -0.269643 0.559904 0.007672
v -0.269643 0.559904 0.007672
v -0.250765 0.263750 0.010911
v -0.250765 0.263750 0.010911
v -0.275528 0.263750 -0.081840
v -0.275528 0.263750 -0.081840
v -0.290279 0.559904 -0.069621
v -0.290279 0.559904 -0.069621
v 0.288108 -0.031800 -0.050094
v 0.253505 -0.031800 -0.070160
v 0.244800 0.850409 -0.015278
v 0.309572 0.559904 -0.047240
v 0.309572 0.559904 -0.047240
v 0.325224 0.263750 -0.058283
v 0.325224 0.263750 -0.058283
v 0.242176 0.263750 -0.106440
v 0.242176 0.263750 -0.106440
v 0.240366 0.559904 -0.087371
v 0.240366 0.559904 -0.087371
v 0.002320 -0.031800 0.144545
v -0.037188 -0.031800 0.150803
v -0.009324 0.850409 0.198880
v 0.020775 0.559904 0.133221
v 0.020775 0.559904 0.133221
v 0.025954 0.263750 0.114779
v 0.025954 0.263750 0.114779
v -0.068864 0.263750 0.129797
v -0.068864 0.263750 0.129797
v -0.058240 0.559904 0.145735
v -0.058240 0.559904 0.145735
v -0.187472 -0.022744 0.280013
v -0.175859 -0.022744 0.241736
v -0.231276 0.707408 0.245823
v -0.185338 0.466975 0.301561
v -0.185338 0.466975 0.301561
v -0.171006 0.221865 0.314269
v -0.171006 0.221865 0.314269
v -0.143134 0.221865 0.222404
v -0.143134 0.221865 0.222404
v -0.162111 0.466975 0.225007
v -0.162111 0.466975 0.225007
v 0.121884 -0.022744 0.161425
v 0.166219 -0.022744 0.186715
v 0.169739 0.707408 0.129038
v 0.095605 0.466975 0.155989
v 0.095605 0.466975 0.155989
v 0.078115 0.221865 0.166048
v 0.078115 0.221865 0.166048
v 0.184518 0.221865 0.226743
v 0.184518 0.221865 0.226743
v 0.184274 0.466975 0.206568
v 0.184274 0.466975 0.206568
v 0.038848 -0.031564 0.346050
v -0.015882 -0.031564 0.329502
v -0.003522 0.715049 0.387401
v 0.068614 0.469195 0.346381
v 0.068614 0.469195 0.346381
v 0.084597 0.218560 0.333032
v 0.084597 0.218560 0.333032
v -0.046754 0.218560 0.293316
v -0.046754 0.218560 0.293316
v -0.040845 0.469195 0.313285
v -0.040845 0.469195 0.313285
v 0.259339 -0.031800 0.087241
v 0.275576 -0.031800 0.123798
v 0.314838 0.850409 0.084475
v 0.243637 0.559904 0.072331
v 0.243637 0.559904 0.072331
v 0.224484 0.263750 0.072085
v 0.224484 0.263750 0.072085
v 0.263452 0.263750 0.159820
v 0.263452 0.263750 0.159820
v 0.276111 0.559904 0.145444
v 0.276111 0.559904 0.145444
v -0.311122 -0.031800 0.135119
v -0.273806 -0.031800 0.149524
v -0.273794 0.850409 0.093956
v -0.332769 0.559904 0.135657
v -0.332769 0.559904 0.135657
v -0.346500 0.263750 0.149012
v -0.346500 0.263750 0.149012
v -0.256941 0.263750 0.183585
v -0.256941 0.263750 0.183585
v -0.258137 0.559904 0.164468
v -0.258137 0.559904 0.164468
vn 0.8774 0.2027 0.4349
vn 0.8926 -0.0866 0.4424
vn 0.8944 0.0587 0.4433
vn -0.0000 0.2027 0.9792
vn -0.0000 -0.0866 0.9962
vn -0.0000 0.0587 0.9983
vn -0.7985 0.2027 -0.5668
vn -0.8124 -0.0866 -0.5766
vn -0.8141 0.0587 -0.5778
vn -0.3153 0.2027 0.9271
vn -0.3208 -0.0866 0.9432
vn -0.3215 0.0587 0.9451
vn -0.8728 0.2427 -0.4234
vn -0.8948 -0.1045 -0.4341
vn -0.8975 0.0708 -0.4354
vn 0.6066 0.2427 -0.7571
vn 0.6218 -0.1045 -0.7761
vn 0.6237 0.0708 -0.7785
vn -0.4231 0.2376 0.8744
vn -0.4333 -0.1022 0.8954
vn -0.4346 0.0693 0.8980
vn 0.9461 0.2027 -0.2526
vn 0.9625 -0.0866 -0.2570
vn 0.9645 0.0587 -0.2575
vn 0.4912 0.2027 -0.8471
vn 0.4998 -0.0866 -0.8618
vn 0.5008 0.0587 -0.8636
vn -0.1532 0.2027 -0.9672
vn -0.1558 -0.0866 -0.9840
vn -0.1562 0.0587 -0.9860
vn 0.9283 0.2427 0.2817
vn 0.9517 -0.1045 0.2887
vn 0.9545 0.0708 0.2896
vn -0.4807 0.2427 0.8427
vn -0.4928 -0.1045 0.8639
vn -0.4942 0.0708 0.8664
vn 0.2811 0.2376 -0.9298
vn 0.2879 -0.1022 -0.9522
vn 0.2887 0.0693 -0.9549
vn -0.8949 0.2027 0.3975
vn -0.9105 -0.0866 0.4044
vn -0.9123 0.0587 0.4052
vn -0.3527 0.2027 0.9135
vn -0.3588 -0.0866 0.9294
vn -0.3595 0.0587 0.9313
vt 0.000000 0.666667
vt 1.000000 0.666667
vt 0.000000 1.000000
vt 0.000000 0.000000
vt 1.000000 0.000000
vt 1.000000 0.333333
vt 0.000000 0.333333
s 0
f 4/1/1 10/2/1 3/3/1
s 1
f 1/4/2 2/5/2 8/6/2
f 1/4/2 8/6/2 6/7/2
f 7/7/3 9/6/3 11/2/3
f 7/7/3 11/2/3 5/1/3
f 16/1/4 22/2/4 14/3/4
f 12/4/5 13/5/5 19/6/5
f 12/4/5 19/6/5 17/7/5
s 0
f 18/7/6 20/6/6 21/2/6
f 18/7/6 21/2/6 15/1/6
s 1
f 27/1/7 33/2/7 25/3/7
f 23/4/8 24/5/8 31/6/8
f 23/4/8 31/6/8 29/7/8
s 0
f 28/7/9 30/6/9 32/2/9
f 28/7/9 32/2/9 26/1/9
f 38/1/10 44/2/10 36/3/10
f 34/4/11 35/5/11 42/6/11
f 34/4/11 42/6/11 40/7/11
f 39/7/12 41/6/12 43/2/12
f 39/7/12 43/2/12 37/1/12
s 1
f 49/1/13 55/2/13 47/3/13
s 0
f 45/4/14 46/5/14 53/6/14
f 45/4/14 53/6/14 51/7/14
f 50/7/15 52/6/15 54/2/15
f 50/7/15 54/2/15 48/1/15
f 59/1/16 65/2/16 58/3/16
s 1
f 56/4/17 57/5/17 63/6/17
f 56/4/17 63/6/17 61/7/17
s 0
f 62/7/18 64/6/18 66/2/18
f 62/7/18 66/2/18 60/1/18
f 71/1/19 77/2/19 69/3/19
s 1
f 67/4/20 68/5/20 75/6/20
f 67/4/20 75/6/20 73/7/20
s 0
f 72/7/21 74/6/21 76/2/21
f 72/7/21 76/2/21 70/1/21
s 1
f 81/1/22 87/2/22 80/3/22
f 78/4/23 79/5/23 85/6/23
f 78/4/23 85/6/23 83/7/23
s 0
f 84/7/24 86/6/24 88/2/24
f 84/7/24 88/2/24 82/1/24
s 1
f 92/1/25 98/2/25 91/3/25
f 89/4/26 90/5/26 96/6/26
f 89/4/26 96/6/26 94/7/26
s 0
f 95/7/27 97/6/27 99/2/27
f 95/7/27 99/2/27 93/1/27
f 104/1/28 110/2/28 102/3/28
f 100/4/29 101/5/29 108/6/29
f 100/4/29 108/6/29 106/7/29
f 105/7/30 107/6/30 109/2/30
f 105/7/30 109/2/30 103/1/30
s 1
f 114/1/31 120/2/31 113/3/31
s 0
f 111/4/32 112/5/32 118/6/32
f 111/4/32 118/6/32 116/7/32
s 1
f 117/7/33 119/6/33 121/2/33
f 117/7/33 121/2/33 115/1/33
s 0
f 126/1/34 132/2/34 124/3/34
f 122/4/35 123/5/35 130/6/35
f 122/4/35 130/6/35 128/7/35
s 1
f 127/7/36 129/6/36 131/2/36
f 127/7/36 131/2/36 125/1/36
f 136/1/37 142/2/37 135/3/37
s 0
f 133/4/38 134/5/38 140/6/38
f 133/4/38 140/6/38 138/7/38
s 1
f 139/7/39 141/6/39 143/2/39
f 139/7/39 143/2/39 137/1/39
f 148/1/40 154/2/40 146/3/40
s 0
f 144/4/41 145/5/41 152/6/41
f 144/4/41 152/6/41 150/7/41
s 1
f 149/7/42 151/6/42 153/2/42
f 149/7/42 153/2/42 147/1/42
f 159/1/43 165/2/43 157/3/43
s 0
f 155/4/44 156/5/44 163/6/44
f 155/4/44 163/6/44 161/7/44
f 160/7/45 162/6/45 164/2/45
f 160/7/45 164/2/45 158/1/45
