# Blender 5.2.0 LTS
# www.blender.org
mtllib GenericRod.mtl
o Cylinder
v -0.519516 3.703159 -2.788516
v 0.519516 3.703159 -2.788516
v -0.519516 3.047467 -2.612823
v 0.519516 3.047467 -2.612823
v -0.519516 2.567467 -2.132823
v 0.519516 2.567467 -2.132823
v -0.519516 2.391774 -1.477131
v 0.519516 2.391774 -1.477131
v -0.519516 2.567467 -0.821439
v 0.519516 2.567467 -0.821439
v -0.519516 3.047467 -0.341439
v 0.519516 3.047467 -0.341439
v -0.519516 3.703159 -0.165747
v 0.519516 3.703159 -0.165747
v -0.519516 4.358851 -0.341439
v 0.519516 4.358851 -0.341439
v -0.519516 4.838850 -0.821439
v 0.519516 4.838850 -0.821439
v -0.519516 5.014543 -1.477131
v 0.519516 5.014543 -1.477131
v -0.519516 4.838850 -2.132823
v 0.519516 4.838850 -2.132823
v -0.519516 4.358851 -2.612823
v 0.519516 4.358851 -2.612823
v -0.366746 3.703159 -2.788516
v 0.370687 3.703159 -2.788516
v 0.370687 3.047467 -2.612823
v -0.366746 3.047467 -2.612823
v 0.370686 2.567467 -2.132823
v -0.366746 2.567467 -2.132823
v 0.370686 2.391774 -1.477131
v -0.366746 2.391774 -1.477131
v 0.370686 2.567467 -0.821439
v -0.366746 2.567467 -0.821439
v 0.370687 3.047467 -0.341439
v -0.366746 3.047467 -0.341439
v 0.370687 3.703159 -0.165747
v -0.366746 3.703159 -0.165747
v 0.370687 4.358851 -0.341439
v -0.366746 4.358851 -0.341439
v 0.370687 4.838850 -0.821439
v -0.366746 4.838850 -0.821439
v 0.370687 5.014543 -1.477131
v -0.366746 5.014543 -1.477131
v 0.370687 4.838850 -2.132823
v -0.366746 4.838850 -2.132823
v 0.370687 4.358851 -2.612823
v -0.366746 4.358851 -2.612823
v -0.256922 3.703159 -2.397915
v 0.260863 3.703159 -2.397915
v 0.260863 3.242767 -2.274554
v -0.256922 3.242767 -2.274554
v 0.260863 2.905736 -1.937523
v -0.256922 2.905736 -1.937523
v 0.260863 2.782375 -1.477131
v -0.256922 2.782375 -1.477131
v 0.260863 2.905736 -1.016739
v -0.256922 2.905736 -1.016739
v 0.260863 3.242767 -0.679709
v -0.256922 3.242767 -0.679709
v 0.260863 3.703159 -0.556348
v -0.256922 3.703159 -0.556348
v 0.260863 4.163551 -0.679709
v -0.256922 4.163551 -0.679709
v 0.260863 4.500581 -1.016739
v -0.256922 4.500581 -1.016739
v 0.260863 4.623943 -1.477131
v -0.256922 4.623943 -1.477131
v 0.260863 4.500581 -1.937523
v -0.256922 4.500581 -1.937523
v 0.260863 4.163551 -2.274554
v -0.256922 4.163551 -2.274554
v 0.000000 0.000000 -0.444177
v -0.160455 0.000000 -0.414183
v -0.299240 0.000000 -0.328251
v -0.397611 0.000000 -0.197987
v -0.442282 0.000000 -0.040983
v -0.427221 0.000000 0.121555
v -0.354461 0.000000 0.267676
v -0.233829 0.000000 0.377647
v -0.081617 0.000000 0.436614
v 0.081617 0.000000 0.436614
v 0.233829 0.000000 0.377647
v 0.354461 0.000000 0.267676
v 0.427221 0.000000 0.121555
v 0.442282 0.000000 -0.040983
v 0.397611 0.000000 -0.197987
v 0.299240 0.000000 -0.328251
v 0.160455 0.000000 -0.414183
v -0.000000 0.254128 -0.511395
v -0.184737 0.254128 -0.476862
v -0.344525 0.254128 -0.377926
v -0.457782 0.254128 -0.227949
v -0.509214 0.254128 -0.047186
v -0.491873 0.254128 0.139950
v -0.408102 0.254128 0.308185
v -0.269215 0.254128 0.434797
v -0.093969 0.254128 0.502688
v 0.093969 0.254128 0.502688
v 0.269215 0.254128 0.434797
v 0.408102 0.254128 0.308185
v 0.491873 0.254128 0.139950
v 0.509214 0.254128 -0.047186
v 0.457782 0.254128 -0.227949
v 0.344525 0.254128 -0.377926
v 0.184737 0.254128 -0.476862
v -0.000000 3.422200 -0.511395
v -0.184737 3.422200 -0.476862
v -0.344525 3.422200 -0.377926
v -0.457782 3.422200 -0.227949
v -0.509214 3.422200 -0.047186
v -0.491873 3.422200 0.139950
v -0.408102 3.422200 0.308185
v -0.269215 3.422200 0.434797
v -0.093969 3.422200 0.502688
v 0.093969 3.422200 0.502688
v 0.269215 3.422200 0.434797
v 0.408102 3.422200 0.308185
v 0.491873 3.422200 0.139950
v 0.509214 3.422200 -0.047186
v 0.457782 3.422200 -0.227949
v 0.344525 3.422200 -0.377926
v 0.184737 3.422200 -0.476862
v -0.000000 3.835349 -0.334594
v -0.120869 3.835349 -0.312000
v -0.225415 3.835349 -0.247268
v -0.299516 3.835349 -0.149141
v -0.333167 3.835349 -0.030872
v -0.321821 3.835349 0.091566
v -0.267012 3.835349 0.201638
v -0.176141 3.835349 0.284477
v -0.061482 3.835349 0.328897
v 0.061481 3.835349 0.328897
v 0.176141 3.835349 0.284477
v 0.267012 3.835349 0.201638
v 0.321821 3.835349 0.091566
v 0.333167 3.835349 -0.030872
v 0.299516 3.835349 -0.149141
v 0.225414 3.835349 -0.247268
v 0.120869 3.835349 -0.312000
v -0.000010 37.590633 -0.138942
v -0.050202 37.590633 -0.129560
v -0.093615 37.590633 -0.102680
v -0.124387 37.590633 -0.061932
v -0.138360 37.590633 -0.012820
v -0.133649 37.590633 0.038023
v -0.110889 37.590633 0.083731
v -0.073154 37.590633 0.118131
v -0.025541 37.590633 0.136577
v 0.025520 37.590633 0.136577
v 0.073133 37.590633 0.118131
v 0.110868 37.590633 0.083731
v 0.133628 37.590633 0.038023
v 0.138339 37.590633 -0.012820
v 0.124366 37.590633 -0.061932
v 0.093594 37.590633 -0.102680
v 0.050181 37.590633 -0.129560
v 0.693749 37.121784 -0.569306
v 0.667250 37.187077 -0.618173
v 0.597875 37.227432 -0.648375
v 0.512123 37.227432 -0.648375
v 0.442748 37.187077 -0.618173
v 0.416249 37.121784 -0.569306
v 0.442748 37.056492 -0.520438
v 0.512123 37.016136 -0.490237
v 0.597875 37.016136 -0.490237
v 0.667250 37.056492 -0.520438
v 0.214380 36.726437 -1.097539
v 0.206192 36.806835 -1.126230
v 0.184754 36.886723 -1.103608
v 0.158255 36.935589 -1.038315
v 0.136817 36.934769 -0.955290
v 0.128628 36.884579 -0.886246
v 0.136817 36.804184 -0.857555
v 0.158255 36.724297 -0.880177
v 0.184754 36.675426 -0.945470
v 0.206192 36.676247 -1.028495
v -0.561255 36.877445 -0.895772
v -0.539817 36.952076 -0.932169
v -0.483691 37.016861 -0.929725
v -0.414316 37.047062 -0.889371
v -0.358191 37.031143 -0.826523
v -0.336753 36.975182 -0.765186
v -0.358191 36.900555 -0.728788
v -0.414316 36.835770 -0.731233
v -0.483691 36.805569 -0.771586
v -0.539817 36.821487 -0.834435
v -0.561255 37.366123 -0.242840
v -0.539817 37.422081 -0.304177
v -0.483691 37.438004 -0.367025
v -0.414316 37.407803 -0.407379
v -0.358191 37.343014 -0.409824
v -0.336753 37.268387 -0.373426
v -0.358191 37.212425 -0.312089
v -0.414316 37.196507 -0.249240
v -0.483691 37.226707 -0.208887
v -0.539817 37.291492 -0.206442
v 0.214380 37.517132 -0.041072
v 0.206192 37.567322 -0.110116
v 0.184754 37.568142 -0.193141
v 0.158255 37.519276 -0.258435
v 0.136817 37.439388 -0.281056
v 0.128628 37.358994 -0.252366
v 0.136817 37.308800 -0.183322
v 0.158255 37.307980 -0.100296
v 0.184754 37.356846 -0.035003
v 0.206192 37.436737 -0.012382
v 0.693749 9.445687 -0.569304
v 0.667250 9.510979 -0.618172
v 0.597875 9.551332 -0.648373
v 0.512123 9.551332 -0.648373
v 0.442748 9.510979 -0.618172
v 0.416249 9.445687 -0.569304
v 0.442748 9.380391 -0.520437
v 0.512123 9.340041 -0.490235
v 0.597875 9.340041 -0.490235
v 0.667250 9.380391 -0.520437
v 0.214380 9.050340 -1.097538
v 0.206192 9.130735 -1.126229
v 0.184754 9.210621 -1.103607
v 0.158255 9.259489 -1.038312
v 0.136817 9.258671 -0.955289
v 0.128628 9.208478 -0.886245
v 0.136817 9.128083 -0.857554
v 0.158255 9.048198 -0.880175
v 0.184754 8.999330 -0.945469
v 0.206192 9.000148 -1.028494
v -0.561255 9.201347 -0.895771
v -0.539817 9.275976 -0.932168
v -0.483691 9.340761 -0.929723
v -0.414316 9.370964 -0.889369
v -0.358191 9.355045 -0.826521
v -0.336753 9.299084 -0.765184
v -0.358191 9.224458 -0.728786
v -0.414316 9.159672 -0.731231
v -0.483691 9.129470 -0.771585
v -0.539817 9.145389 -0.834433
v -0.561255 9.690022 -0.242838
v -0.539817 9.745984 -0.304176
v -0.483691 9.761903 -0.367023
v -0.414316 9.731700 -0.407376
v -0.358191 9.666915 -0.409822
v -0.336753 9.592286 -0.373425
v -0.358191 9.536327 -0.312088
v -0.414316 9.520409 -0.249239
v -0.483691 9.550611 -0.208886
v -0.539817 9.615396 -0.206441
v 0.214380 9.841031 -0.041071
v 0.206192 9.891224 -0.110115
v 0.184754 9.892043 -0.193139
v 0.158255 9.843175 -0.258433
v 0.136817 9.763288 -0.281055
v 0.128628 9.682893 -0.252364
v 0.136817 9.632701 -0.183320
v 0.158255 9.631883 -0.100295
v 0.184754 9.680751 -0.035001
v 0.206192 9.760637 -0.012380
v 0.693749 16.032173 -0.569305
v 0.667250 16.097467 -0.618172
v 0.597875 16.137821 -0.648374
v 0.512123 16.137821 -0.648374
v 0.442748 16.097467 -0.618172
v 0.416249 16.032173 -0.569305
v 0.442748 15.966880 -0.520438
v 0.512123 15.926526 -0.490236
v 0.597875 15.926526 -0.490236
v 0.667250 15.966880 -0.520438
v 0.214380 15.636828 -1.097538
v 0.206192 15.717220 -1.126230
v 0.184754 15.797110 -1.103609
v 0.158255 15.845978 -1.038314
v 0.136817 15.845158 -0.955289
v 0.128628 15.794967 -0.886246
v 0.136817 15.714572 -0.857555
v 0.158255 15.634685 -0.880176
v 0.184754 15.585816 -0.945470
v 0.206192 15.586637 -1.028495
v -0.561255 15.787836 -0.895772
v -0.539817 15.862461 -0.932169
v -0.483691 15.927250 -0.929724
v -0.414316 15.957453 -0.889370
v -0.358191 15.941532 -0.826522
v -0.336753 15.885572 -0.765185
v -0.358191 15.810945 -0.728787
v -0.414316 15.746158 -0.731232
v -0.483691 15.715957 -0.771586
v -0.539817 15.731877 -0.834435
v -0.561255 16.276512 -0.242839
v -0.539817 16.332470 -0.304176
v -0.483691 16.348391 -0.367025
v -0.414316 16.318188 -0.407379
v -0.358191 16.253401 -0.409823
v -0.336753 16.178776 -0.373426
v -0.358191 16.122816 -0.312088
v -0.414316 16.106895 -0.249241
v -0.483691 16.137096 -0.208887
v -0.539817 16.201885 -0.206442
v 0.214380 16.427519 -0.041073
v 0.206192 16.477711 -0.110116
v 0.184754 16.478531 -0.193141
v 0.158255 16.429661 -0.258434
v 0.136817 16.349773 -0.281055
v 0.128628 16.269381 -0.252365
v 0.136817 16.219191 -0.183321
v 0.158255 16.218370 -0.100296
v 0.184754 16.267237 -0.035002
v 0.206192 16.347126 -0.012381
v 0.693749 23.666075 -0.569306
v 0.667250 23.731367 -0.618173
v 0.597875 23.771721 -0.648375
v 0.512123 23.771721 -0.648375
v 0.442748 23.731367 -0.618173
v 0.416249 23.666075 -0.569306
v 0.442748 23.600780 -0.520438
v 0.512123 23.560427 -0.490236
v 0.597875 23.560427 -0.490236
v 0.667250 23.600780 -0.520438
v 0.214380 23.270729 -1.097539
v 0.206192 23.351122 -1.126230
v 0.184754 23.431011 -1.103608
v 0.158255 23.479879 -1.038315
v 0.136817 23.479059 -0.955290
v 0.128628 23.428867 -0.886246
v 0.136817 23.348473 -0.857555
v 0.158255 23.268583 -0.880177
v 0.184754 23.219717 -0.945469
v 0.206192 23.220535 -1.028495
v -0.561255 23.421738 -0.895771
v -0.539817 23.496363 -0.932169
v -0.483691 23.561150 -0.929724
v -0.414316 23.591351 -0.889371
v -0.358191 23.575432 -0.826522
v -0.336753 23.519472 -0.765185
v -0.358191 23.444847 -0.728788
v -0.414316 23.380058 -0.731233
v -0.483691 23.349857 -0.771586
v -0.539817 23.365776 -0.834434
v -0.561255 23.910410 -0.242840
v -0.539817 23.966372 -0.304176
v -0.483691 23.982292 -0.367025
v -0.414316 23.952089 -0.407378
v -0.358191 23.887302 -0.409824
v -0.336753 23.812677 -0.373426
v -0.358191 23.756714 -0.312089
v -0.414316 23.740795 -0.249240
v -0.483691 23.770996 -0.208887
v -0.539817 23.835785 -0.206442
v 0.214380 24.061420 -0.041072
v 0.206192 24.111612 -0.110116
v 0.184754 24.112431 -0.193141
v 0.158255 24.063564 -0.258434
v 0.136817 23.983677 -0.281056
v 0.128628 23.903282 -0.252365
v 0.136817 23.853088 -0.183321
v 0.158255 23.852268 -0.100296
v 0.184754 23.901136 -0.035003
v 0.206192 23.981026 -0.012381
v 0.693749 30.336098 -0.569306
v 0.667250 30.401388 -0.618173
v 0.597875 30.441742 -0.648375
v 0.512123 30.441742 -0.648375
v 0.442748 30.401388 -0.618173
v 0.416249 30.336098 -0.569306
v 0.442748 30.270802 -0.520438
v 0.512123 30.230448 -0.490237
v 0.597875 30.230448 -0.490237
v 0.667250 30.270802 -0.520438
v 0.214380 29.940752 -1.097539
v 0.206192 30.021145 -1.126230
v 0.184754 30.101032 -1.103608
v 0.158255 30.149899 -1.038315
v 0.136817 30.149082 -0.955290
v 0.128628 30.098888 -0.886246
v 0.136817 30.018496 -0.857555
v 0.158255 29.938608 -0.880177
v 0.184754 29.889738 -0.945470
v 0.206192 29.890558 -1.028495
v -0.561255 30.091761 -0.895772
v -0.539817 30.166386 -0.932169
v -0.483691 30.231173 -0.929725
v -0.414316 30.261374 -0.889371
v -0.358191 30.245453 -0.826523
v -0.336753 30.189495 -0.765186
v -0.358191 30.114870 -0.728788
v -0.414316 30.050083 -0.731233
v -0.483691 30.019878 -0.771586
v -0.539817 30.035799 -0.834435
v -0.561255 30.580433 -0.242840
v -0.539817 30.636393 -0.304177
v -0.483691 30.652313 -0.367025
v -0.414316 30.622112 -0.407379
v -0.358191 30.557325 -0.409824
v -0.336753 30.482700 -0.373426
v -0.358191 30.426737 -0.312089
v -0.414316 30.410820 -0.249240
v -0.483691 30.441021 -0.208887
v -0.539817 30.505808 -0.206442
v 0.214380 30.731441 -0.041072
v 0.206192 30.781635 -0.110116
v 0.184754 30.782454 -0.193142
v 0.158255 30.733587 -0.258435
v 0.136817 30.653698 -0.281056
v 0.128628 30.573303 -0.252366
v 0.136817 30.523111 -0.183322
v 0.158255 30.522291 -0.100296
v 0.184754 30.571161 -0.035003
v 0.206192 30.651049 -0.012382
vn -0.0000 -0.2588 -0.9659
vn -0.0000 -0.5000 -0.8660
vn -0.0000 -0.8660 -0.5000
vn -0.0000 -0.9659 -0.2588
vn -0.0000 -0.9659 0.2588
vn -0.0000 -0.8660 0.5000
vn -0.0000 -0.5000 0.8660
vn -0.0000 -0.2588 0.9659
vn -0.0000 0.2588 0.9659
vn -0.0000 0.5000 0.8660
vn -0.0000 0.8660 0.5000
vn -0.0000 0.9659 0.2588
vn -0.0000 0.9659 -0.2588
vn -0.0000 0.8660 -0.5000
vn 1.0000 -0.0000 -0.0000
vn -0.0000 0.5000 -0.8660
vn -0.0000 0.2588 -0.9659
vn -1.0000 -0.0000 -0.0000
vn -0.9627 -0.2344 -0.1353
vn -0.9627 -0.2707 -0.0000
vn 0.9627 0.2344 -0.1353
vn 0.9627 0.2707 -0.0000
vn -0.9627 -0.0000 0.2707
vn -0.9627 0.1353 0.2344
vn 0.9627 -0.2707 -0.0000
vn 0.9627 -0.2344 -0.1353
vn -0.9627 0.2344 -0.1353
vn -0.9627 0.1353 -0.2344
vn 0.9627 0.1353 0.2344
vn 0.9627 -0.0000 0.2707
vn -0.9627 -0.2344 0.1353
vn 0.9627 0.1353 -0.2344
vn -0.9627 0.2344 0.1353
vn 0.9627 -0.2344 0.1353
vn -0.9627 -0.0000 -0.2707
vn -0.9627 -0.1353 -0.2344
vn -0.0000 -0.0000 -1.0000
vn -0.0000 0.7071 -0.7071
vn -0.0000 0.7071 0.7071
vn -0.0000 -0.0000 1.0000
vn -0.0000 -0.7071 0.7071
vn -0.0000 -0.7071 -0.7071
vn 0.9627 -0.1353 0.2344
vn -0.9627 0.2707 -0.0000
vn 0.9627 -0.1353 -0.2344
vn -0.9627 -0.1353 0.2344
vn 0.9627 0.2344 0.1353
vn 0.9627 -0.0000 -0.2707
vn -0.0000 -1.0000 -0.0000
vn 0.6682 -0.1270 -0.7330
vn 0.3583 -0.1270 -0.9249
vn 0.3542 0.1963 -0.9143
vn 0.6606 0.1963 -0.7246
vn 0.5089 -0.2557 0.8219
vn 0.7715 -0.2557 0.5826
vn 0.7916 -0.1270 0.5978
vn 0.5222 -0.1270 0.8433
vn -0.8654 -0.2557 -0.4309
vn -0.9626 -0.2557 -0.0892
vn -0.9877 -0.1270 -0.0915
vn -0.8879 -0.1270 -0.4421
vn 0.9298 -0.2557 0.2646
vn 0.9540 -0.1270 0.2714
vn -0.9298 -0.2557 0.2646
vn -0.9540 -0.1270 0.2714
vn 0.9626 -0.2557 -0.0892
vn 0.9877 -0.1270 -0.0915
vn -0.7715 -0.2557 0.5826
vn -0.7916 -0.1270 0.5978
vn 0.8654 -0.2557 -0.4309
vn 0.8879 -0.1270 -0.4421
vn -0.5089 -0.2557 0.8219
vn -0.5222 -0.1270 0.8433
vn 0.6513 -0.2557 -0.7144
vn -0.1776 -0.2557 0.9503
vn -0.1823 -0.1270 0.9750
vn -0.0000 -0.2557 -0.9668
vn -0.3492 -0.2557 -0.9015
vn -0.3583 -0.1270 -0.9249
vn -0.0000 -0.1270 -0.9919
vn 0.3492 -0.2557 -0.9015
vn 0.1776 -0.2557 0.9503
vn 0.1823 -0.1270 0.9750
vn -0.6513 -0.2557 -0.7144
vn -0.6682 -0.1270 -0.7330
vn 0.7825 0.1963 0.5909
vn 0.9431 0.1963 0.2683
vn 0.9407 0.2084 0.2677
vn 0.7805 0.2084 0.5894
vn 0.1802 0.1963 0.9638
vn -0.1802 0.1963 0.9638
vn -0.6606 0.1963 -0.7246
vn -0.3542 0.1963 -0.9143
vn -0.0000 0.1963 -0.9805
vn 0.5162 0.1963 0.8337
vn -0.8777 0.1963 -0.4371
vn -0.9764 0.1963 -0.0905
vn -0.9431 0.1963 0.2683
vn 0.9764 0.1963 -0.0905
vn -0.7825 0.1963 0.5909
vn 0.8777 0.1963 -0.4371
vn -0.5162 0.1963 0.8337
vn 0.8755 0.2084 -0.4360
vn 0.6589 0.2084 -0.7228
vn 0.6737 0.0058 -0.7390
vn 0.8951 0.0058 -0.4457
vn -0.9407 0.2084 0.2677
vn -0.9739 0.2084 -0.0902
vn 0.9739 0.2084 -0.0902
vn -0.7805 0.2084 0.5894
vn -0.5149 0.2084 0.8315
vn -0.1797 0.2084 0.9614
vn -0.3533 0.2084 -0.9120
vn -0.0000 0.2084 -0.9780
vn 0.3533 0.2084 -0.9120
vn 0.1797 0.2084 0.9614
vn -0.6589 0.2084 -0.7228
vn 0.5149 0.2084 0.8315
vn -0.8755 0.2084 -0.4360
vn -0.0000 1.0000 -0.0000
vn -0.1837 0.0058 0.9830
vn -0.5264 0.0058 0.8502
vn -0.3612 0.0058 -0.9325
vn -0.0000 0.0058 -1.0000
vn 0.3612 0.0058 -0.9325
vn 0.1837 0.0058 0.9830
vn -0.6737 0.0058 -0.7390
vn 0.5264 0.0058 0.8502
vn -0.8951 0.0058 -0.4457
vn 0.7980 0.0058 0.6026
vn -0.9957 0.0058 -0.0923
vn 0.9618 0.0058 0.2737
vn -0.9618 0.0058 0.2737
vn 0.9957 0.0058 -0.0923
vn -0.7980 0.0058 0.6026
vn 0.7824 -0.1371 -0.6075
vn 0.5406 0.3603 -0.7602
vn -0.0000 0.8006 -0.5992
vn -0.5406 0.8310 -0.1314
vn -0.7824 0.5442 0.3028
vn -0.7824 0.1371 0.6075
vn -0.5405 -0.3603 0.7603
vn -0.0000 -0.8006 0.5992
vn 0.5406 -0.8310 0.1314
vn 0.7824 -0.5442 -0.3028
vn -0.2989 -0.3476 -0.8887
vn -0.2065 0.2149 -0.9546
vn 0.2065 0.9764 0.0630
vn 0.2989 0.7547 0.5841
vn 0.2989 0.3476 0.8887
vn 0.2065 -0.2149 0.9546
vn -0.2065 -0.9764 -0.0630
vn -0.2989 -0.7547 -0.5841
vn -0.9671 0.2035 -0.1523
vn -0.6682 0.5957 -0.4458
vn 0.6682 0.5957 -0.4458
vn 0.9671 0.2035 -0.1523
vn 0.9671 -0.2035 0.1523
vn 0.6682 -0.5957 0.4458
vn -0.6682 -0.5957 0.4458
vn -0.9671 -0.2035 0.1523
vn -0.2989 0.7547 0.5841
vn -0.2065 0.9764 0.0630
vn 0.2065 0.2149 -0.9546
vn 0.2989 -0.3476 -0.8887
vn 0.2989 -0.7547 -0.5841
vn 0.2065 -0.9764 -0.0630
vn -0.2065 -0.2149 0.9546
vn -0.2989 0.3476 0.8887
vn 0.7824 0.5442 0.3028
vn 0.5406 0.8310 -0.1314
vn -0.5405 0.3603 -0.7602
vn -0.7824 -0.1371 -0.6075
vn -0.7824 -0.5442 -0.3028
vn -0.5406 -0.8310 0.1314
vn 0.5405 -0.3603 0.7602
vn 0.7824 0.1371 0.6074
vn -0.5406 -0.3603 0.7602
vn 0.5405 -0.8310 0.1314
vn 0.2065 0.9764 0.0629
vn -0.2065 -0.9764 -0.0629
vn -0.2065 0.9764 0.0629
vn 0.2065 -0.9764 -0.0629
vn -0.5405 -0.8310 0.1314
vn 0.5406 -0.3603 0.7602
vn 0.7824 0.1371 0.6075
vn -0.7824 0.1371 0.6074
vn -0.6682 0.5956 -0.4458
vn -0.5406 0.3603 -0.7602
vn -0.7824 -0.1371 -0.6074
vn -0.5405 0.8310 -0.1314
vn 0.7824 -0.5441 -0.3028
vn 0.6681 -0.5957 0.4458
vt 1.000000 0.834282
vt 1.000000 1.000000
vt 0.916667 1.000000
vt 0.916667 0.834282
vt 0.833333 1.000000
vt 0.833333 0.834282
vt 0.750000 1.000000
vt 0.750000 0.834282
vt 0.666667 1.000000
vt 0.666667 0.834282
vt 0.583333 1.000000
vt 0.583333 0.834282
vt 0.500000 1.000000
vt 0.500000 0.834282
vt 0.416667 1.000000
vt 0.416667 0.834282
vt 0.333333 1.000000
vt 0.333333 0.834282
vt 0.250000 1.000000
vt 0.250000 0.834282
vt 0.166667 1.000000
vt 0.166667 0.834282
vt 0.370000 0.457846
vt 0.250000 0.490000
vt 0.130000 0.457846
vt 0.042154 0.370000
vt 0.010000 0.250000
vt 0.042154 0.130000
vt 0.130000 0.042154
vt 0.250000 0.010000
vt 0.370000 0.042154
vt 0.457846 0.130000
vt 0.490000 0.250000
vt 0.457846 0.370000
vt 0.083333 1.000000
vt 0.083333 0.834282
vt 0.000000 1.000000
vt 0.000000 0.834282
vt 0.750000 0.490000
vt 0.870000 0.457846
vt 0.957846 0.370000
vt 0.990000 0.250000
vt 0.957846 0.130000
vt 0.870000 0.042154
vt 0.750000 0.010000
vt 0.630000 0.042154
vt 0.542154 0.130000
vt 0.510000 0.250000
vt 0.542154 0.370000
vt 0.630000 0.457846
vt 0.083333 0.500000
vt 0.083333 0.667615
vt 0.000000 0.667615
vt 0.000000 0.500000
vt 0.166667 0.500000
vt 0.166667 0.667615
vt 0.250000 0.667615
vt 0.250000 0.500000
vt 0.333333 0.500000
vt 0.333333 0.667615
vt 0.750000 0.667615
vt 0.833333 0.667615
vt 0.416667 0.500000
vt 0.416667 0.667615
vt 0.500000 0.500000
vt 0.500000 0.667615
vt 0.583333 0.500000
vt 0.583333 0.667615
vt 0.666667 0.500000
vt 0.666667 0.667615
vt 0.750000 0.500000
vt 0.833333 0.500000
vt 0.916667 0.500000
vt 0.916667 0.667615
vt 1.000000 0.500000
vt 1.000000 0.667615
vt 0.000000 0.000000
vt 0.600000 0.600000
vt 0.800000 0.600000
vt 0.800000 0.700000
vt 0.600000 0.700000
vt 0.800000 0.800000
vt 0.600000 0.800000
vt 0.800000 0.900000
vt 0.600000 0.900000
vt 0.800000 1.000000
vt 0.600000 1.000000
vt 0.600000 -0.000000
vt 0.800000 -0.000000
vt 0.800000 0.100000
vt 0.600000 0.100000
vt 0.800000 0.200000
vt 0.600000 0.200000
vt 0.800000 0.300000
vt 0.600000 0.300000
vt 0.800000 0.400000
vt 0.600000 0.400000
vt 0.800000 0.500000
vt 0.600000 0.500000
vt 1.000000 0.600000
vt 1.000000 0.700000
vt 1.000000 0.800000
vt 1.000000 0.900000
vt 1.000000 -0.000000
vt 1.000000 0.100000
vt 1.000000 0.200000
vt 1.000000 0.300000
vt 1.000000 0.400000
vt 0.000000 0.600000
vt 0.200000 0.600000
vt 0.200000 0.700000
vt 0.000000 0.700000
vt 0.200000 0.800000
vt 0.000000 0.800000
vt 0.200000 0.900000
vt 0.000000 0.900000
vt 0.200000 1.000000
vt 0.000000 1.000000
vt 0.000000 -0.000000
vt 0.200000 -0.000000
vt 0.200000 0.100000
vt 0.000000 0.100000
vt 0.200000 0.200000
vt 0.000000 0.200000
vt 0.200000 0.300000
vt 0.000000 0.300000
vt 0.200000 0.400000
vt 0.000000 0.400000
vt 0.200000 0.500000
vt 0.000000 0.500000
vt 0.400000 0.600000
vt 0.400000 0.700000
vt 0.400000 0.800000
vt 0.400000 0.900000
vt 0.400000 1.000000
vt 0.400000 -0.000000
vt 0.400000 0.100000
vt 0.400000 0.200000
vt 0.400000 0.300000
vt 0.400000 0.400000
vt 0.400000 0.500000
s 1
usemtl Material.001
f 26/1/1 2/2/1 4/3/2 27/4/2
f 27/4/2 4/3/2 6/5/3 29/6/3
f 29/6/3 6/5/3 8/7/4 31/8/4
f 31/8/5 8/7/5 10/9/6 33/10/6
f 33/10/6 10/9/6 12/11/7 35/12/7
f 35/12/7 12/11/7 14/13/8 37/14/8
f 37/14/9 14/13/9 16/15/10 39/16/10
f 39/16/10 16/15/10 18/17/11 41/18/11
f 41/18/11 18/17/11 20/19/12 43/20/12
f 43/20/13 20/19/13 22/21/14 45/22/14
f 4/23/15 2/24/15 24/25/15 22/26/15 20/27/15 18/28/15 16/29/15 14/30/15 12/31/15 10/32/15 8/33/15 6/34/15
f 45/22/14 22/21/14 24/35/16 47/36/16
f 47/36/16 24/35/16 2/37/17 26/38/17
f 1/39/18 3/40/18 5/41/18 7/42/18 9/43/18 11/44/18 13/45/18 15/46/18 17/47/18 19/48/18 21/49/18 23/50/18
f 23/51/16 48/52/16 25/53/17 1/54/17
f 29/6/19 31/8/20 55/8/20 53/6/19
f 21/55/14 46/56/14 48/52/16 23/51/16
f 46/56/21 44/57/22 68/57/22 70/56/21
f 19/58/13 44/57/13 46/56/14 21/55/14
f 37/14/23 39/16/24 63/16/24 61/14/23
f 17/59/11 42/60/11 44/57/12 19/58/12
f 32/61/25 30/62/26 54/62/26 56/61/25
f 15/63/10 40/64/10 42/60/11 17/59/11
f 45/22/27 47/36/28 71/36/28 69/22/27
f 13/65/9 38/66/9 40/64/10 15/63/10
f 40/64/29 38/66/30 62/66/30 64/64/29
f 11/67/7 36/68/7 38/66/8 13/65/8
f 31/8/20 33/10/31 57/10/31 55/8/20
f 9/69/6 34/70/6 36/68/7 11/67/7
f 48/52/32 46/56/21 70/56/21 72/52/32
f 7/71/5 32/61/5 34/70/6 9/69/6
f 39/16/24 41/18/33 65/18/33 63/16/24
f 5/72/3 30/62/3 32/61/4 7/71/4
f 34/70/34 32/61/25 56/61/25 58/70/34
f 3/73/2 28/74/2 30/62/3 5/72/3
f 47/36/28 26/38/35 50/38/35 71/36/28
f 1/75/1 25/76/1 28/74/2 3/73/2
f 26/1/35 27/4/36 51/4/36 50/1/35
f 72/52/17 71/36/17 50/38/37 49/53/37
f 70/56/14 69/22/14 71/36/38 72/52/38
f 68/57/13 67/20/13 69/22/14 70/56/14
f 66/60/11 65/18/11 67/20/12 68/57/12
f 64/64/39 63/16/39 65/18/11 66/60/11
f 62/66/40 61/14/40 63/16/9 64/64/9
f 60/68/7 59/12/7 61/14/40 62/66/40
f 58/70/41 57/10/41 59/12/7 60/68/7
f 56/61/5 55/8/5 57/10/5 58/70/5
f 54/62/4 53/6/4 55/8/4 56/61/4
f 52/74/2 51/4/2 53/6/42 54/62/42
f 49/76/37 50/1/37 51/4/2 52/74/2
f 38/66/30 36/68/43 60/68/43 62/66/30
f 43/20/44 45/22/27 69/22/27 67/20/44
f 30/62/26 28/74/45 52/74/45 54/62/26
f 35/12/46 37/14/23 61/14/23 59/12/46
f 44/57/22 42/60/47 66/60/47 68/57/22
f 27/4/36 29/6/19 53/6/19 51/4/36
f 36/68/43 34/70/34 58/70/34 60/68/43
f 41/18/33 43/20/44 67/20/44 65/18/33
f 28/74/45 25/76/48 49/76/48 52/74/45
f 25/53/48 48/52/32 72/52/32 49/53/48
f 33/10/31 35/12/46 59/12/46 57/10/31
f 42/60/47 40/64/29 64/64/29 66/60/47
f 105/77/50 106/77/51 123/77/52 122/77/53
f 83/77/54 84/77/55 101/77/56 100/77/57
f 76/77/58 77/77/59 94/77/60 93/77/61
f 84/77/55 85/77/62 102/77/63 101/77/56
f 77/77/59 78/77/64 95/77/65 94/77/60
f 85/77/62 86/77/66 103/77/67 102/77/63
f 78/77/64 79/77/68 96/77/69 95/77/65
f 86/77/66 87/77/70 104/77/71 103/77/67
f 79/77/68 80/77/72 97/77/73 96/77/69
f 80/77/72 81/77/75 98/77/76 97/77/73
f 81/77/75 82/77/82 99/77/83 98/77/76
f 82/77/82 83/77/54 100/77/57 99/77/83
f 118/77/86 119/77/87 136/77/88 135/77/89
f 98/77/76 99/77/83 116/77/90 115/77/91
f 91/77/79 92/77/85 109/77/92 108/77/93
f 106/77/51 90/77/80 107/77/94 123/77/52
f 99/77/83 100/77/57 117/77/95 116/77/90
f 92/77/85 93/77/61 110/77/96 109/77/92
f 100/77/57 101/77/56 118/77/86 117/77/95
f 93/77/61 94/77/60 111/77/97 110/77/96
f 101/77/56 102/77/63 119/77/87 118/77/86
f 94/77/60 95/77/65 112/77/98 111/77/97
f 102/77/63 103/77/67 120/77/99 119/77/87
f 95/77/65 96/77/69 113/77/100 112/77/98
f 103/77/67 104/77/71 121/77/101 120/77/99
f 96/77/69 97/77/73 114/77/102 113/77/100
f 104/77/71 105/77/50 122/77/53 121/77/101
f 97/77/73 98/77/76 115/77/91 114/77/102
f 90/77/80 91/77/79 108/77/93 107/77/94
f 111/77/97 112/77/98 129/77/107 128/77/108
f 119/77/87 120/77/99 137/77/109 136/77/88
f 112/77/98 113/77/100 130/77/110 129/77/107
f 120/77/99 121/77/101 138/77/103 137/77/109
f 113/77/100 114/77/102 131/77/111 130/77/110
f 114/77/102 115/77/91 132/77/112 131/77/111
f 115/77/91 116/77/90 133/77/116 132/77/112
f 116/77/90 117/77/95 134/77/118 133/77/116
f 117/77/95 118/77/86 135/77/89 134/77/118
f 110/77/96 111/77/97 128/77/108 127/77/119
f 158/78/136 168/79/136 169/80/136 159/81/136
f 159/81/137 169/80/137 170/82/137 160/83/137
f 160/83/138 170/82/138 171/84/138 161/85/138
f 161/85/139 171/84/139 172/86/139 162/87/139
f 162/88/140 172/89/140 173/90/140 163/91/140
f 163/91/141 173/90/141 174/92/141 164/93/141
f 164/93/142 174/92/142 175/94/142 165/95/142
f 165/95/143 175/94/143 176/96/143 166/97/143
f 166/97/144 176/96/144 177/98/144 167/99/144
f 167/99/145 177/98/145 168/79/145 158/78/145
f 168/79/146 178/100/146 179/101/146 169/80/146
f 169/80/147 179/101/147 180/102/147 170/82/147
f 170/82/138 180/102/138 181/103/138 171/84/138
f 171/84/148 181/103/148 182/2/148 172/86/148
f 172/89/149 182/104/149 183/105/149 173/90/149
f 173/90/150 183/105/150 184/106/150 174/92/150
f 174/92/151 184/106/151 185/107/151 175/94/151
f 175/94/143 185/107/143 186/108/143 176/96/143
f 176/96/152 186/108/152 187/75/152 177/98/152
f 177/98/153 187/75/153 178/100/153 168/79/153
f 178/109/154 188/110/154 189/111/154 179/112/154
f 179/112/155 189/111/155 190/113/155 180/114/155
f 180/114/138 190/113/138 191/115/138 181/116/138
f 181/116/156 191/115/156 192/117/156 182/118/156
f 182/119/157 192/120/157 193/121/157 183/122/157
f 183/122/158 193/121/158 194/123/158 184/124/158
f 184/124/159 194/123/159 195/125/159 185/126/159
f 185/126/143 195/125/143 196/127/143 186/128/143
f 186/128/160 196/127/160 197/129/160 187/130/160
f 187/130/161 197/129/161 188/110/161 178/109/161
f 188/110/162 198/131/162 199/132/162 189/111/162
f 189/111/163 199/132/163 200/133/163 190/113/163
f 190/113/138 200/133/138 201/134/138 191/115/138
f 191/115/164 201/134/164 202/135/164 192/117/164
f 192/120/165 202/136/165 203/137/165 193/121/165
f 193/121/166 203/137/166 204/138/166 194/123/166
f 194/123/167 204/138/167 205/139/167 195/125/167
f 195/125/143 205/139/143 206/140/143 196/127/143
f 196/127/168 206/140/168 207/141/168 197/129/168
f 197/129/169 207/141/169 198/131/169 188/110/169
f 198/131/170 158/78/170 159/81/170 199/132/170
f 199/132/171 159/81/171 160/83/171 200/133/171
f 200/133/138 160/83/138 161/85/138 201/134/138
f 201/134/172 161/85/172 162/87/172 202/135/172
f 202/136/173 162/88/173 163/91/173 203/137/173
f 203/137/174 163/91/174 164/93/174 204/138/174
f 204/138/175 164/93/175 165/95/175 205/139/175
f 205/139/143 165/95/143 166/97/143 206/140/143
f 206/140/176 166/97/176 167/99/176 207/141/176
f 207/141/177 167/99/177 158/78/177 198/131/177
f 208/78/136 218/79/136 219/80/136 209/81/136
f 209/81/137 219/80/137 220/82/137 210/83/137
f 210/83/138 220/82/138 221/84/138 211/85/138
f 211/85/139 221/84/139 222/86/139 212/87/139
f 212/88/140 222/89/140 223/90/140 213/91/140
f 213/91/141 223/90/141 224/92/141 214/93/141
f 214/93/178 224/92/178 225/94/178 215/95/178
f 215/95/143 225/94/143 226/96/143 216/97/143
f 216/97/179 226/96/179 227/98/179 217/99/179
f 217/99/145 227/98/145 218/79/145 208/78/145
f 218/79/146 228/100/146 229/101/146 219/80/146
f 219/80/147 229/101/147 230/102/147 220/82/147
f 220/82/138 230/102/138 231/103/138 221/84/138
f 221/84/180 231/103/180 232/2/180 222/86/180
f 222/89/149 232/104/149 233/105/149 223/90/149
f 223/90/150 233/105/150 234/106/150 224/92/150
f 224/92/151 234/106/151 235/107/151 225/94/151
f 225/94/143 235/107/143 236/108/143 226/96/143
f 226/96/181 236/108/181 237/75/181 227/98/181
f 227/98/153 237/75/153 228/100/153 218/79/153
f 228/109/154 238/110/154 239/111/154 229/112/154
f 229/112/155 239/111/155 240/113/155 230/114/155
f 230/114/138 240/113/138 241/115/138 231/116/138
f 231/116/156 241/115/156 242/117/156 232/118/156
f 232/119/157 242/120/157 243/121/157 233/122/157
f 233/122/158 243/121/158 244/123/158 234/124/158
f 234/124/159 244/123/159 245/125/159 235/126/159
f 235/126/143 245/125/143 246/127/143 236/128/143
f 236/128/160 246/127/160 247/129/160 237/130/160
f 237/130/161 247/129/161 238/110/161 228/109/161
f 238/110/162 248/131/162 249/132/162 239/111/162
f 239/111/182 249/132/182 250/133/182 240/113/182
f 240/113/138 250/133/138 251/134/138 241/115/138
f 241/115/164 251/134/164 252/135/164 242/117/164
f 242/120/165 252/136/165 253/137/165 243/121/165
f 243/121/166 253/137/166 254/138/166 244/123/166
f 244/123/183 254/138/183 255/139/183 245/125/183
f 245/125/143 255/139/143 256/140/143 246/127/143
f 246/127/168 256/140/168 257/141/168 247/129/168
f 247/129/169 257/141/169 248/131/169 238/110/169
f 248/131/170 208/78/170 209/81/170 249/132/170
f 249/132/171 209/81/171 210/83/171 250/133/171
f 250/133/138 210/83/138 211/85/138 251/134/138
f 251/134/172 211/85/172 212/87/172 252/135/172
f 252/136/173 212/88/173 213/91/173 253/137/173
f 253/137/174 213/91/174 214/93/174 254/138/174
f 254/138/184 214/93/184 215/95/184 255/139/184
f 255/139/143 215/95/143 216/97/143 256/140/143
f 256/140/185 216/97/185 217/99/185 257/141/185
f 257/141/186 217/99/186 208/78/186 248/131/186
f 258/78/136 268/79/136 269/80/136 259/81/136
f 259/81/137 269/80/137 270/82/137 260/83/137
f 260/83/138 270/82/138 271/84/138 261/85/138
f 261/85/139 271/84/139 272/86/139 262/87/139
f 262/88/140 272/89/140 273/90/140 263/91/140
f 263/91/187 273/90/187 274/92/187 264/93/187
f 264/93/178 274/92/178 275/94/178 265/95/178
f 265/95/143 275/94/143 276/96/143 266/97/143
f 266/97/144 276/96/144 277/98/144 267/99/144
f 267/99/145 277/98/145 268/79/145 258/78/145
f 268/79/146 278/100/146 279/101/146 269/80/146
f 269/80/147 279/101/147 280/102/147 270/82/147
f 270/82/138 280/102/138 281/103/138 271/84/138
f 271/84/148 281/103/148 282/2/148 272/86/148
f 272/89/149 282/104/149 283/105/149 273/90/149
f 273/90/150 283/105/150 284/106/150 274/92/150
f 274/92/151 284/106/151 285/107/151 275/94/151
f 275/94/143 285/107/143 286/108/143 276/96/143
f 276/96/152 286/108/152 287/75/152 277/98/152
f 277/98/153 287/75/153 278/100/153 268/79/153
f 278/109/154 288/110/154 289/111/154 279/112/154
f 279/112/188 289/111/188 290/113/188 280/114/188
f 280/114/138 290/113/138 291/115/138 281/116/138
f 281/116/156 291/115/156 292/117/156 282/118/156
f 282/119/157 292/120/157 293/121/157 283/122/157
f 283/122/158 293/121/158 294/123/158 284/124/158
f 284/124/159 294/123/159 295/125/159 285/126/159
f 285/126/143 295/125/143 296/127/143 286/128/143
f 286/128/160 296/127/160 297/129/160 287/130/160
f 287/130/161 297/129/161 288/110/161 278/109/161
f 288/110/162 298/131/162 299/132/162 289/111/162
f 289/111/163 299/132/163 300/133/163 290/113/163
f 290/113/138 300/133/138 301/134/138 291/115/138
f 291/115/164 301/134/164 302/135/164 292/117/164
f 292/120/165 302/136/165 303/137/165 293/121/165
f 293/121/166 303/137/166 304/138/166 294/123/166
f 294/123/167 304/138/167 305/139/167 295/125/167
f 295/125/143 305/139/143 306/140/143 296/127/143
f 296/127/168 306/140/168 307/141/168 297/129/168
f 297/129/169 307/141/169 298/131/169 288/110/169
f 298/131/170 258/78/170 259/81/170 299/132/170
f 299/132/171 259/81/171 260/83/171 300/133/171
f 300/133/138 260/83/138 261/85/138 301/134/138
f 301/134/189 261/85/189 262/87/189 302/135/189
f 302/136/190 262/88/190 263/91/190 303/137/190
f 303/137/174 263/91/174 264/93/174 304/138/174
f 304/138/175 264/93/175 265/95/175 305/139/175
f 305/139/143 265/95/143 266/97/143 306/140/143
f 306/140/185 266/97/185 267/99/185 307/141/185
f 307/141/177 267/99/177 258/78/177 298/131/177
f 308/78/136 318/79/136 319/80/136 309/81/136
f 309/81/137 319/80/137 320/82/137 310/83/137
f 310/83/138 320/82/138 321/84/138 311/85/138
f 311/85/139 321/84/139 322/86/139 312/87/139
f 312/88/140 322/89/140 323/90/140 313/91/140
f 313/91/141 323/90/141 324/92/141 314/93/141
f 314/93/178 324/92/178 325/94/178 315/95/178
f 315/95/143 325/94/143 326/96/143 316/97/143
f 316/97/179 326/96/179 327/98/179 317/99/179
f 317/99/145 327/98/145 318/79/145 308/78/145
f 318/79/146 328/100/146 329/101/146 319/80/146
f 319/80/147 329/101/147 330/102/147 320/82/147
f 320/82/138 330/102/138 331/103/138 321/84/138
f 321/84/180 331/103/180 332/2/180 322/86/180
f 322/89/149 332/104/149 333/105/149 323/90/149
f 323/90/150 333/105/150 334/106/150 324/92/150
f 324/92/151 334/106/151 335/107/151 325/94/151
f 325/94/143 335/107/143 336/108/143 326/96/143
f 326/96/181 336/108/181 337/75/181 327/98/181
f 327/98/153 337/75/153 328/100/153 318/79/153
f 328/109/154 338/110/154 339/111/154 329/112/154
f 329/112/155 339/111/155 340/113/155 330/114/155
f 330/114/138 340/113/138 341/115/138 331/116/138
f 331/116/156 341/115/156 342/117/156 332/118/156
f 332/119/157 342/120/157 343/121/157 333/122/157
f 333/122/158 343/121/158 344/123/158 334/124/158
f 334/124/159 344/123/159 345/125/159 335/126/159
f 335/126/143 345/125/143 346/127/143 336/128/143
f 336/128/160 346/127/160 347/129/160 337/130/160
f 337/130/161 347/129/161 338/110/161 328/109/161
f 338/110/162 348/131/162 349/132/162 339/111/162
f 339/111/182 349/132/182 350/133/182 340/113/182
f 340/113/138 350/133/138 351/134/138 341/115/138
f 341/115/164 351/134/164 352/135/164 342/117/164
f 342/120/165 352/136/165 353/137/165 343/121/165
f 343/121/166 353/137/166 354/138/166 344/123/166
f 344/123/183 354/138/183 355/139/183 345/125/183
f 345/125/143 355/139/143 356/140/143 346/127/143
f 346/127/168 356/140/168 357/141/168 347/129/168
f 347/129/169 357/141/169 348/131/169 338/110/169
f 348/131/170 308/78/170 309/81/170 349/132/170
f 349/132/171 309/81/171 310/83/171 350/133/171
f 350/133/138 310/83/138 311/85/138 351/134/138
f 351/134/172 311/85/172 312/87/172 352/135/172
f 352/136/173 312/88/173 313/91/173 353/137/173
f 353/137/174 313/91/174 314/93/174 354/138/174
f 354/138/175 314/93/175 315/95/175 355/139/175
f 355/139/143 315/95/143 316/97/143 356/140/143
f 356/140/185 316/97/185 317/99/185 357/141/185
f 357/141/186 317/99/186 308/78/186 348/131/186
f 358/78/136 368/79/136 369/80/136 359/81/136
f 359/81/137 369/80/137 370/82/137 360/83/137
f 360/83/138 370/82/138 371/84/138 361/85/138
f 361/85/191 371/84/191 372/86/191 362/87/191
f 362/88/140 372/89/140 373/90/140 363/91/140
f 363/91/141 373/90/141 374/92/141 364/93/141
f 364/93/178 374/92/178 375/94/178 365/95/178
f 365/95/143 375/94/143 376/96/143 366/97/143
f 366/97/144 376/96/144 377/98/144 367/99/144
f 367/99/192 377/98/192 368/79/192 358/78/192
f 368/79/146 378/100/146 379/101/146 369/80/146
f 369/80/147 379/101/147 380/102/147 370/82/147
f 370/82/138 380/102/138 381/103/138 371/84/138
f 371/84/180 381/103/180 382/2/180 372/86/180
f 372/89/149 382/104/149 383/105/149 373/90/149
f 373/90/150 383/105/150 384/106/150 374/92/150
f 374/92/151 384/106/151 385/107/151 375/94/151
f 375/94/143 385/107/143 386/108/143 376/96/143
f 376/96/152 386/108/152 387/75/152 377/98/152
f 377/98/153 387/75/153 378/100/153 368/79/153
f 378/109/154 388/110/154 389/111/154 379/112/154
f 379/112/155 389/111/155 390/113/155 380/114/155
f 380/114/138 390/113/138 391/115/138 381/116/138
f 381/116/156 391/115/156 392/117/156 382/118/156
f 382/119/157 392/120/157 393/121/157 383/122/157
f 383/122/158 393/121/158 394/123/158 384/124/158
f 384/124/193 394/123/193 395/125/193 385/126/193
f 385/126/143 395/125/143 396/127/143 386/128/143
f 386/128/160 396/127/160 397/129/160 387/130/160
f 387/130/161 397/129/161 388/110/161 378/109/161
f 388/110/162 398/131/162 399/132/162 389/111/162
f 389/111/182 399/132/182 400/133/182 390/113/182
f 390/113/138 400/133/138 401/134/138 391/115/138
f 391/115/164 401/134/164 402/135/164 392/117/164
f 392/120/165 402/136/165 403/137/165 393/121/165
f 393/121/166 403/137/166 404/138/166 394/123/166
f 394/123/183 404/138/183 405/139/183 395/125/183
f 395/125/143 405/139/143 406/140/143 396/127/143
f 396/127/168 406/140/168 407/141/168 397/129/168
f 397/129/169 407/141/169 398/131/169 388/110/169
f 398/131/170 358/78/170 359/81/170 399/132/170
f 399/132/171 359/81/171 360/83/171 400/133/171
f 400/133/138 360/83/138 361/85/138 401/134/138
f 401/134/172 361/85/172 362/87/172 402/135/172
f 402/136/173 362/88/173 363/91/173 403/137/173
f 403/137/174 363/91/174 364/93/174 404/138/174
f 404/138/175 364/93/175 365/95/175 405/139/175
f 405/139/143 365/95/143 366/97/143 406/140/143
f 406/140/185 366/97/185 367/99/185 407/141/185
f 407/141/186 367/99/186 358/78/186 398/131/186
usemtl Material
f 74/77/49 73/77/49 89/77/49 88/77/49 87/77/49 86/77/49 85/77/49 84/77/49 83/77/49 82/77/49 81/77/49 80/77/49 79/77/49 78/77/49 77/77/49 76/77/49 75/77/49
f 87/77/70 88/77/74 105/77/50 104/77/71
f 73/77/77 74/77/78 91/77/79 90/77/80
f 88/77/74 89/77/81 106/77/51 105/77/50
f 74/77/78 75/77/84 92/77/85 91/77/79
f 89/77/81 73/77/77 90/77/80 106/77/51
f 75/77/84 76/77/58 93/77/61 92/77/85
f 138/77/103 139/77/104 156/77/105 155/77/106
f 121/77/101 122/77/53 139/77/104 138/77/103
f 107/77/94 108/77/93 125/77/113 124/77/114
f 122/77/53 123/77/52 140/77/115 139/77/104
f 108/77/93 109/77/92 126/77/117 125/77/113
f 123/77/52 107/77/94 124/77/114 140/77/115
f 109/77/92 110/77/96 127/77/119 126/77/117
f 142/77/120 143/77/120 144/77/120 145/77/120 146/77/120 147/77/120 148/77/120 149/77/120 150/77/120 151/77/120 152/77/120 153/77/120 154/77/120 155/77/120 156/77/120 157/77/120 141/77/120
f 131/77/111 132/77/112 149/77/121 148/77/122
f 124/77/114 125/77/113 142/77/123 141/77/124
f 139/77/104 140/77/115 157/77/125 156/77/105
f 132/77/112 133/77/116 150/77/126 149/77/121
f 125/77/113 126/77/117 143/77/127 142/77/123
f 140/77/115 124/77/114 141/77/124 157/77/125
f 133/77/116 134/77/118 151/77/128 150/77/126
f 126/77/117 127/77/119 144/77/129 143/77/127
f 134/77/118 135/77/89 152/77/130 151/77/128
f 127/77/119 128/77/108 145/77/131 144/77/129
f 135/77/89 136/77/88 153/77/132 152/77/130
f 128/77/108 129/77/107 146/77/133 145/77/131
f 136/77/88 137/77/109 154/77/134 153/77/132
f 129/77/107 130/77/110 147/77/135 146/77/133
f 137/77/109 138/77/103 155/77/106 154/77/134
f 130/77/110 131/77/111 148/77/122 147/77/135
